<?xml version="1.0" encoding="UTF-8"?>
<svg id="nudgii_-_apricot" xmlns="http://www.w3.org/2000/svg" version="1.1" viewBox="0 0 625.96 700.13">
  <!-- Generator: Adobe Illustrator 30.3.0, SVG Export Plug-In . SVG Version: 2.1.3 Build 182)  -->
  <defs>
    <style>
      .st0 {
        fill: #9b7fd4;
      }

      .st1 {
        fill: #f5f0e8;
      }

      .st2 {
        fill: #e8a87c;
      }
    </style>
  </defs>
  <path class="st1" d="M125.18,0h0c69.14,0,125.18,57.7,125.18,128.87v442.39c0,71.17-56.05,128.87-125.18,128.87h0c-69.14,0-125.18-57.7-125.18-128.87V128.87C0,57.7,56.05,0,125.18,0Z"/>
  <path class="st0" d="M450.96,0h0c69.14,0,125.18,57.7,125.18,128.87v442.39c0,71.17-56.05,128.87-125.18,128.87h0c-69.14,0-125.18-57.7-125.18-128.87V128.87c0-71.17,56.05-128.87,125.18-128.87Z"/>
  <circle class="st2" cx="535.96" cy="119.29" r="90"/>
</svg>
