<?xml version="1.0" encoding="UTF-8"?>
<svg id="nudgii_app_icon" xmlns="http://www.w3.org/2000/svg" version="1.1" viewBox="0 0 1024 1024">
  <!-- Generator: Adobe Illustrator 30.3.0, SVG Export Plug-In . SVG Version: 2.1.3 Build 182)  -->
  <defs>
    <style>
      .st0 {
        fill: #9b7fd4;
      }

      .st1 {
        fill: #2d1f4a;
      }

      .st2 {
        fill: #f5f0e8;
      }

      .st3 {
        fill: #e8a87c;
      }
    </style>
  </defs>
  <rect class="st1" width="1024" height="1024" rx="220" ry="220"/>
  <path class="st2" d="M324.2,161.93h0c69.14,0,125.18,57.7,125.18,128.87v442.39c0,71.17-56.05,128.87-125.18,128.87h0c-69.14,0-125.18-57.7-125.18-128.87v-442.39c0-71.17,56.05-128.87,125.18-128.87Z"/>
  <path class="st0" d="M649.98,161.93h0c69.14,0,125.18,57.7,125.18,128.87v442.39c0,71.17-56.05,128.87-125.18,128.87h0c-69.14,0-125.18-57.7-125.18-128.87v-442.39c0-71.17,56.05-128.87,125.18-128.87Z"/>
  <circle class="st3" cx="734.98" cy="281.22" r="90"/>
</svg>
